Coordinates
version=1
nRows=6
nColumns=36
inDegrees=yes

Units are S.I. units (second, meters, Newtons, ...)
If the header above contains a line with 'inDegrees', this indicates whether rotational values are in degrees (yes) or radians (no).

endheader
time	pelvis_tilt	pelvis_list	pelvis_rotation	pelvis_tx	pelvis_ty	pelvis_tz	hip_flexion_r	hip_adduction_r	hip_rotation_r	knee_angle_r	knee_angle_r_beta	ankle_angle_r	subtalar_angle_r	mtp_angle_r	hip_flexion_l	hip_adduction_l	hip_rotation_l	knee_angle_l	knee_angle_l_beta	ankle_angle_l	subtalar_angle_l	mtp_angle_l	lumbar_extension	lumbar_bending	lumbar_rotation	arm_flex_r	arm_add_r	arm_rot_r	elbow_flex_r	pro_sup_r	arm_flex_l	arm_add_l	arm_rot_l	elbow_flex_l	pro_sup_l
      1.15416670	    -29.23373008	      2.10965672	     -1.20787253	     -0.86854585	      1.18347677	     -0.09825318	     49.14883285	     -0.40465155	      1.00085582	     40.07712864	      0.69947785	     17.40345224	    -13.31597986	     -7.49999987	     48.06780651	      0.89558021	     -1.37385801	     40.56023938	      0.70790972	     20.16322159	     -2.20937740	     -7.49999987	    -17.42433774	     -0.53591017	     -4.10367231	    -26.92214546	    -19.10635842	     -4.05770069	     19.75683290	     55.88927786	    -24.28461948	    -14.94377149	     -1.81488545	      1.51379641	     55.09237436
      1.15833330	    -29.49351410	      2.05477154	     -1.21489488	     -0.86964456	      1.17975300	     -0.09781874	     49.93124032	     -0.34171844	      0.91289333	     40.93046827	      0.71437144	     17.90564719	    -13.36914428	     -7.49999987	     48.83635917	      0.74978304	     -1.47594112	     41.41017703	      0.72274393	     20.66248195	     -1.85951859	     -7.49999987	    -17.84161272	     -0.60453586	     -4.33433312	    -26.29691943	    -18.86531274	     -6.78254584	     19.78206781	     60.25337660	    -24.42618906	    -14.58194458	      1.20537780	      1.46311167	     62.83515154
      1.16250000	    -29.89160052	      2.02262209	     -1.24964630	     -0.87051538	      1.17538622	     -0.09773063	     50.92644334	     -0.28144960	      0.88146462	     41.96913392	      0.73249957	     18.39496522	    -13.37525952	     -7.49999987	     49.82220473	      0.59396707	     -1.59615752	     42.41873727	      0.74034663	     21.28275537	     -1.41625968	     -7.49999987	    -18.12090401	     -0.60611871	     -4.17451188	    -26.18161301	    -18.58395877	     -8.04371419	     20.24132556	     59.92014191	    -24.07005236	    -14.31470334	      1.91713546	      1.38092145	     62.60124667
      1.16666670	    -30.34607982	      2.01034165	     -1.19049970	     -0.87070919	      1.17416749	     -0.09762797	     51.89432459	     -0.30052550	      0.85038915	     42.86857148	      0.74819772	     18.76700747	    -13.36907142	     -7.49999987	     50.78799876	      0.52977350	     -1.66938128	     43.27147218	      0.75522966	     21.86348191	     -0.87769188	     -7.49999987	    -18.36304484	     -0.61289612	     -4.43710455	    -25.51327032	    -18.30384714	     -9.10473302	     20.09476211	     59.87245171	    -23.85503476	    -14.01749923	      2.30214239	      1.34316101	     62.80138224
      1.17083330	    -30.67758177	      1.95460037	     -1.17675126	     -0.87183684	      1.17188169	     -0.09748080	     52.77690888	     -0.25210912	      0.72219584	     43.74635321	      0.76351790	     19.12661699	    -13.26414789	     -7.49999987	     51.67260287	      0.37761333	     -1.77327643	     44.20013922	      0.77143796	     22.28127404	     -0.40713358	     -7.49999987	    -18.70606143	     -0.58359985	     -4.56798452	    -24.92352286	    -18.13003745	    -10.02656693	     20.17569564	     60.13776315	    -23.48533280	    -13.90065257	      3.18929055	      1.35361341	     63.25695345
      1.17500000	    -31.05127897	      1.92969888	     -1.08407486	     -0.87150845	      1.17020390	     -0.09843634	     53.53394423	     -0.29799069	      0.57067192	     44.47525591	      0.77623965	     19.22741414	    -13.28318484	     -7.49999987	     52.55107463	      0.30629279	     -1.79546415	     45.11287470	      0.78736820	     22.54780574	     -0.07111737	     -7.49999987	    -18.93028364	     -0.56716678	     -4.35221079	    -24.68142125	    -17.72877261	    -11.13312330	     20.42686962	     60.17428068	    -22.78367171	    -13.93883558	      3.60022074	      1.30719681	     63.10391433
